<?xml version="1.0" encoding="utf-8"?>
<!-- Generator: Adobe Illustrator 28.0.0, SVG Export Plug-In . SVG Version: 6.00 Build 0)  -->
<svg version="1.1" id="Capa_1" xmlns="http://www.w3.org/2000/svg" xmlns:xlink="http://www.w3.org/1999/xlink" x="0px" y="0px"
	 viewBox="0 0 807.3 235" style="enable-background:new 0 0 807.3 235;" xml:space="preserve">
<style type="text/css">
	.st0{fill:#F04559;}
	.st1{fill:#393949;}
	.st2{fill:#567FED;}
	.st3{fill:#FFB208;}
	.st4{fill:#FFFFFF;}
	.st5{fill:none;}
</style>
<path class="st0" d="M-261-474.7l-27-21.7c-4.2-3.4-9.3-4.9-14.3-4.2l-173.9,23.5c-11.2,1.5-18.8,13.4-17,26.5l6.7,49.8
	c1.8,13.1,12.3,22.6,23.5,21l173.9-23.5c5-0.7,9.5-3.5,12.7-7.9l20.3-28.1C-248.5-449.9-250.7-466.5-261-474.7z M-275.1-443
	c-6.4,0.9-12.2-3.6-13.1-10c-0.9-6.4,3.6-12.2,10-13.1c6.4-0.9,12.2,3.6,13.1,10C-264.3-449.7-268.8-443.9-275.1-443z"/>
<g>
	<path class="st1" d="M5717.6-331.7c4.7,0,8.6,3.8,8.6,8.6v0c0,4.7-3.9,8.6-8.6,8.6h-9.1v41.8c0,4.7-3.8,8.6-8.6,8.6h-1.2
		c-4.7,0-8.6-3.9-8.6-8.6v-41.8h-9.1c-4.7,0-8.6-3.9-8.6-8.6v0c0-4.7,3.8-8.6,8.6-8.6H5717.6z"/>
	<path class="st1" d="M5770.1-280.7c4.5,0,8.1,3.6,8.1,8.1v0.4c0,4.5-3.6,8.1-8.1,8.1h-30.2c-4.5,0-8.1-3.6-8.1-8.1v-51.4
		c0-4.5,3.6-8.1,8.1-8.1h28.6c4.5,0,8.1,3.6,8.1,8.1v0.4c0,4.5-3.6,8.1-8.1,8.1h-18.3v8.8h14.6c4.5,0,8.1,3.6,8.1,8.1v0
		c0,4.5-3.6,8.1-8.1,8.1h-14.6v9.5H5770.1z"/>
	<path class="st1" d="M5895.6-280.7c4.5,0,8.1,3.6,8.1,8.1v0.4c0,4.5-3.6,8.1-8.1,8.1h-30.2c-4.5,0-8.1-3.6-8.1-8.1v-51.4
		c0-4.5,3.6-8.1,8.1-8.1h28.6c4.5,0,8.1,3.6,8.1,8.1v0.4c0,4.5-3.6,8.1-8.1,8.1h-18.3v8.8h14.6c4.5,0,8.1,3.6,8.1,8.1v0
		c0,4.5-3.6,8.1-8.1,8.1h-14.6v9.5H5895.6z"/>
	<path class="st1" d="M6018.8-290.5c0,8.3-2.4,14.9-7.2,19.6c-4.8,4.7-11.5,7-20.2,7c-8.6,0-15.4-2.3-20.2-7
		c-4.8-4.7-7.2-11.2-7.2-19.6v-14.9c0-8.3,2.4-14.8,7.2-19.5c4.8-4.6,11.5-6.9,20.2-6.9c8.6,0,15.4,2.3,20.2,6.9
		c4.8,4.6,7.2,11.1,7.2,19.5V-290.5z M5982.3-291c0,6.8,3,10.1,9.1,10.1c6.1,0,9.1-3.4,9.1-10.1v-14c0-6.6-3-10-9.1-10
		c-6.1,0-9.1,3.3-9.1,10V-291z"/>
	<g>
		<path class="st2" d="M5783.8-275c0.2-2.2,1.2-4.3,2.8-6l11.9-11.9l4.1-4.1v-25.4c0-5.2-4.2-9.4-9.4-9.4c-5.2,0-9.4,4.2-9.4,9.4
			v48.5c0,0.1,0,0.2,0,0.3c0-0.2,0-0.5,0-0.7C5783.8-274.5,5783.8-274.7,5783.8-275z"/>
		<path class="st0" d="M5849.7-279.9c-0.3-0.4-0.6-0.8-1-1.1l-17-17l-31,31.1c-1.6,1.6-3.5,2.5-5.6,2.8l46.6,0
			C5850.1-264.1,5854.5-273.6,5849.7-279.9z"/>
		<path class="st3" d="M5831.7-298L5831.7-298l16.7-16.8c3.9-3.9,3.9-10.2,0-14.1v0c-3.9-3.9-10.2-3.9-14.1,0l-16.7,16.8l-15,15.1
			l-4.1,4.1l-11.9,11.9c-1.7,1.7-2.6,3.8-2.8,6c0,0.2,0,0.4,0,0.7c0,0.2,0,0.5,0,0.7c0,0.2,0,0.3,0,0.5c0,0.1,0,0.3,0,0.4
			c0,0.2,0.1,0.4,0.1,0.6c0,0,0,0.1,0,0.1c0.4,1.9,1.3,3.6,2.7,5v0c2.3,2.3,5.5,3.2,8.5,2.8c2-0.3,4-1.2,5.6-2.8L5831.7-298z"/>
	</g>
	<path class="st1" d="M5958.3-272.9c0.1-0.4,0.1-0.8,0.1-1.2v-48.7c0-4.9-4-8.9-8.9-8.9l0,0c-4.9,0-8.9,4-8.9,8.9v18.5l-14.6-22.8
		c-0.3-0.4-0.6-0.8-0.9-1.2c-1.6-2.1-4.1-3.4-7-3.4l0,0c-4.9,0-8.9,4-8.9,8.9v48.7c0,4.9,4,8.9,8.9,8.9l0,0c4.9,0,8.9-4,8.9-8.9
		v-18.5l15,23.4c2.6,4.1,8.1,5.3,12.3,2.7c2.1-1.4,3.5-3.5,3.9-5.7c0-0.2,0.1-0.4,0.1-0.6C5958.3-272.8,5958.3-272.9,5958.3-272.9z"
		/>
</g>
<path class="st1" d="M5595.7-19.4h-169.3c-8.9,0-16.1-7.2-16.1-16.1v-143c0-8.9,7.2-16.1,16.1-16.1h169.3c8.9,0,16.1,7.2,16.1,16.1
	v143C5611.9-26.6,5604.6-19.4,5595.7-19.4z"/>
<path class="st2" d="M5821-19.4h-169.3c-8.9,0-16.1-7.2-16.1-16.1v-143c0-8.9,7.2-16.1,16.1-16.1H5821c8.9,0,16.1,7.2,16.1,16.1v143
	C5837.1-26.6,5829.9-19.4,5821-19.4z"/>
<path class="st3" d="M6046.2-19.4h-169.3c-8.9,0-16.1-7.2-16.1-16.1v-143c0-8.9,7.2-16.1,16.1-16.1h169.3c8.9,0,16.1,7.2,16.1,16.1
	v143C6062.4-26.6,6055.1-19.4,6046.2-19.4z"/>
<path class="st0" d="M6271.5-19.4h-169.3c-8.9,0-16.1-7.2-16.1-16.1v-143c0-8.9,7.2-16.1,16.1-16.1h169.3c8.9,0,16.1,7.2,16.1,16.1
	v143C6287.6-26.6,6280.4-19.4,6271.5-19.4z"/>
<g>
	<rect x="5410.3" y="359.3" class="st5" width="121.5" height="21.1"/>
	<text transform="matrix(1 0 0 1 5410.2593 374.5126)" style="font-family:'Tahoma'; font-size:20px;">Made Tommy</text>
</g>
<g>
	<text transform="matrix(1 0 0 1 5410.2593 84.4099)" class="st1" style="font-family:'UniNeueBlack'; font-size:20px;">Uni Neue Black</text>
</g>
<g>
	<text transform="matrix(1 0 0 1 5410.2593 51.5089)" class="st1" style="font-family:'UniNeueBlack'; font-size:20px;">(Títulos)</text>
</g>
<g>
	<text transform="matrix(1 0 0 1 5410.2593 347.1783)" class="st1" style="font-family:'UniNeueBlack'; font-size:20px;">(Párrafos)</text>
</g>
<g>
	<rect x="5410.3" y="122.7" class="st5" width="877.4" height="165.3"/>
	<text transform="matrix(1 0 0 1 5410.2593 157.3464)"><tspan x="0" y="0" class="st1" style="font-family:'UniNeueBlack'; font-size:48.7352px;">ABCDEFGHIJKLMNÑOPQRSTUVWXYZ</tspan><tspan x="0" y="58.5" class="st1" style="font-family:'UniNeueBlack'; font-size:48.7352px;">abcdefghijklmnñopqrstuvwxyz</tspan><tspan x="0" y="117" class="st1" style="font-family:'UniNeueBlack'; font-size:48.7352px;">1234567890+-*/!”#$%&amp;/()=?¡</tspan></text>
</g>
<g>
	<rect x="5410.3" y="398.9" class="st5" width="877.4" height="165.3"/>
	<text transform="matrix(1 0 0 1 5410.2593 435.9136)"><tspan x="0" y="0" class="st1" style="font-family:'Tahoma'; font-size:48.7352px;">ABCDEFGHIJKLMNÑOPQRSTUVWXYZ</tspan><tspan x="0" y="58.5" class="st1" style="font-family:'Tahoma'; font-size:48.7352px;">abcdefghijklmnñopqrstuvwxyz</tspan><tspan x="0" y="117" class="st1" style="font-family:'Tahoma'; font-size:48.7352px;">1234567890+-*/!”#$%&amp;/()=?¡</tspan></text>
</g>
<g>
	<rect x="5428" y="-81.9" class="st5" width="153.5" height="45.9"/>
	<text transform="matrix(1 0 0 1 5427.9922 -71.6506)"><tspan x="0" y="0" class="st4" style="font-family:'Tahoma'; font-size:13.5176px;">RGB: 57.57.73</tspan><tspan x="0" y="16.2" class="st4" style="font-family:'Tahoma'; font-size:13.5176px;">CMYK: 78.69.46.47</tspan><tspan x="0" y="32.4" class="st4" style="font-family:'Tahoma'; font-size:13.5176px;">HEXADECIMAL: #393949</tspan></text>
</g>
<g>
	<rect x="5654.7" y="-81.9" class="st5" width="153.5" height="45.9"/>
	<text transform="matrix(1 0 0 1 5654.6606 -71.6506)"><tspan x="0" y="0" class="st4" style="font-family:'Tahoma'; font-size:13.5176px;">RGB: 86.127.237</tspan><tspan x="0" y="16.2" class="st4" style="font-family:'Tahoma'; font-size:13.5176px;">CMYK: 71.51.0.0</tspan><tspan x="0" y="32.4" class="st4" style="font-family:'Tahoma'; font-size:13.5176px;">HEXADECIMAL: #597FED</tspan></text>
</g>
<g>
	<rect x="5878.8" y="-81.9" class="st5" width="153.5" height="45.9"/>
	<text transform="matrix(1 0 0 1 5878.8042 -71.6506)"><tspan x="0" y="0" class="st4" style="font-family:'Tahoma'; font-size:13.5176px;">RGB: 255.178.8</tspan><tspan x="0" y="16.2" class="st4" style="font-family:'Tahoma'; font-size:13.5176px;">CMYK: 0.35.92.0</tspan><tspan x="0" y="32.4" class="st4" style="font-family:'Tahoma'; font-size:13.5176px;">HEXADECIMAL: #FFB208</tspan></text>
</g>
<g>
	<rect x="6102.3" y="-81.9" class="st5" width="153.5" height="45.9"/>
	<text transform="matrix(1 0 0 1 6102.3076 -71.6506)"><tspan x="0" y="0" class="st4" style="font-family:'Tahoma'; font-size:13.5176px;">RGB: 240.69.89</tspan><tspan x="0" y="16.2" class="st4" style="font-family:'Tahoma'; font-size:13.5176px;">CMYK: 0.84.52.0</tspan><tspan x="0" y="32.4" class="st4" style="font-family:'Tahoma'; font-size:13.5176px;">HEXADECIMAL: #F04559</tspan></text>
</g>
<rect x="908.9" y="-423.8" class="st1" width="1080" height="1081"/>
<rect x="2008.9" y="-423.8" class="st2" width="1080" height="1081"/>
<rect x="3108.9" y="-423.8" class="st3" width="1080" height="1081"/>
<rect x="4208.9" y="-423.8" class="st0" width="1080" height="1081"/>
<rect x="908.9" y="680.8" class="st1" width="1080" height="1081"/>
<rect x="2008.9" y="680.8" class="st2" width="1080" height="1081"/>
<rect x="3108.9" y="680.8" class="st3" width="1080" height="1081"/>
<rect x="4208.9" y="680.8" class="st0" width="1080" height="1081"/>
<g>
	<path class="st4" d="M1165.7,41.4c10.5,0,19,8.5,19,19v0c0,10.5-8.5,19-19,19h-20.1v92.4c0,10.5-8.5,19-19,19h-2.7
		c-10.5,0-19-8.5-19-19V79.4h-20.1c-10.5,0-19-8.5-19-19v0c0-10.5,8.5-19,19-19H1165.7z"/>
	<path class="st4" d="M1281.9,154.3c9.9,0,17.9,8,17.9,17.9v0.8c0,9.9-8,17.9-17.9,17.9H1215c-9.9,0-17.9-8-17.9-17.9V59.2
		c0-9.9,8-17.9,17.9-17.9h63.3c9.9,0,17.9,8,17.9,17.9v0.8c0,9.9-8,17.9-17.9,17.9h-40.5v19.4h32.3c9.9,0,17.9,8,17.9,17.9v0
		c0,9.9-8,17.9-17.9,17.9h-32.3v21.1H1281.9z"/>
	<path class="st4" d="M1559.4,154.3c9.9,0,17.9,8,17.9,17.9v0.8c0,9.9-8,17.9-17.9,17.9h-66.9c-9.9,0-17.9-8-17.9-17.9V59.2
		c0-9.9,8-17.9,17.9-17.9h63.3c9.9,0,17.9,8,17.9,17.9v0.8c0,9.9-8,17.9-17.9,17.9h-40.5v19.4h32.3c9.9,0,17.9,8,17.9,17.9v0
		c0,9.9-8,17.9-17.9,17.9h-32.3v21.1H1559.4z"/>
	<path class="st4" d="M1832.1,132.5c0,18.5-5.3,32.9-16,43.3c-10.6,10.4-25.5,15.6-44.7,15.6c-19.1,0-34-5.2-44.7-15.6
		c-10.6-10.4-16-24.8-16-43.3V99.5c0-18.5,5.3-32.8,16-43.1c10.6-10.2,25.5-15.4,44.7-15.4c19.1,0,34,5.1,44.7,15.4
		c10.6,10.2,16,24.6,16,43.1V132.5z M1751.3,131.5c0,15,6.7,22.4,20.2,22.4c13.5,0,20.2-7.5,20.2-22.4v-30.9c0-14.7-6.7-22-20.2-22
		c-13.5,0-20.2,7.3-20.2,22V131.5z"/>
	<g>
		<path class="st2" d="M1312.2,166.9c0.5-4.8,2.6-9.5,6.3-13.2l26.3-26.4l9-9V61.9c0-11.5-9.3-20.8-20.8-20.8
			c-11.5,0-20.8,9.3-20.8,20.8v107.3c0,0.2,0,0.5,0,0.7c0-0.5,0-1,0-1.6C1312.1,167.9,1312.2,167.4,1312.2,166.9z"/>
		<path class="st0" d="M1458,155.9c-0.6-0.8-1.3-1.7-2.1-2.5l-37.6-37.6l-68.5,68.9c-3.5,3.5-7.8,5.5-12.4,6.2l103,0
			C1458.7,190.9,1468.5,169.9,1458,155.9z"/>
		<path class="st3" d="M1418.2,115.8L1418.2,115.8l37.1-37.2c8.6-8.6,8.5-22.5-0.1-31.1v0c-8.6-8.6-22.5-8.5-31.1,0.1l-37,37.2
			l-33.3,33.4l-9,9l-26.3,26.4c-3.7,3.7-5.8,8.4-6.3,13.2c-0.1,0.5-0.1,1-0.1,1.5c0,0.5,0,1,0,1.6c0,0.4,0,0.7,0.1,1.1
			c0,0.3,0.1,0.6,0.1,1c0.1,0.5,0.1,0.9,0.2,1.4c0,0.1,0,0.2,0.1,0.3c0.8,4.1,2.8,8,6,11.2v0c5.1,5.1,12.1,7.1,18.7,6.1
			c4.5-0.7,8.9-2.7,12.4-6.2L1418.2,115.8z"/>
	</g>
	<path class="st4" d="M1698.3,171.4c0.1-0.9,0.2-1.7,0.2-2.6V61c0-10.9-8.8-19.7-19.7-19.7l0,0c-10.9,0-19.7,8.8-19.7,19.7V102
		l-32.4-50.5c-0.6-0.9-1.3-1.8-2-2.6c-3.6-4.5-9.2-7.5-15.4-7.5h0c-10.9,0-19.7,8.8-19.7,19.7v107.8c0,10.9,8.8,19.7,19.7,19.7h0
		c10.9,0,19.7-8.8,19.7-19.7v-40.9l33.2,51.8c5.9,9.2,18,11.8,27.2,6c4.7-3,7.7-7.7,8.7-12.7c0.1-0.4,0.2-0.8,0.2-1.3
		C1698.3,171.6,1698.3,171.5,1698.3,171.4z"/>
</g>
<g>
	<path class="st4" d="M2265.7,41.4c10.5,0,19,8.5,19,19v0c0,10.5-8.5,19-19,19h-20.1v92.4c0,10.5-8.5,19-19,19h-2.7
		c-10.5,0-19-8.5-19-19V79.4h-20.1c-10.5,0-19-8.5-19-19v0c0-10.5,8.5-19,19-19H2265.7z"/>
	<path class="st4" d="M2381.9,154.3c9.9,0,17.9,8,17.9,17.9v0.8c0,9.9-8,17.9-17.9,17.9H2315c-9.9,0-17.9-8-17.9-17.9V59.2
		c0-9.9,8-17.9,17.9-17.9h63.3c9.9,0,17.9,8,17.9,17.9v0.8c0,9.9-8,17.9-17.9,17.9h-40.5v19.4h32.3c9.9,0,17.9,8,17.9,17.9v0
		c0,9.9-8,17.9-17.9,17.9h-32.3v21.1H2381.9z"/>
	<path class="st4" d="M2659.4,154.3c9.9,0,17.9,8,17.9,17.9v0.8c0,9.9-8,17.9-17.9,17.9h-66.9c-9.9,0-17.9-8-17.9-17.9V59.2
		c0-9.9,8-17.9,17.9-17.9h63.3c9.9,0,17.9,8,17.9,17.9v0.8c0,9.9-8,17.9-17.9,17.9h-40.5v19.4h32.3c9.9,0,17.9,8,17.9,17.9v0
		c0,9.9-8,17.9-17.9,17.9h-32.3v21.1H2659.4z"/>
	<path class="st4" d="M2932.1,132.5c0,18.5-5.3,32.9-16,43.3c-10.6,10.4-25.5,15.6-44.7,15.6c-19.1,0-34-5.2-44.7-15.6
		c-10.6-10.4-16-24.8-16-43.3V99.5c0-18.5,5.3-32.8,16-43.1c10.6-10.2,25.5-15.4,44.7-15.4c19.1,0,34,5.1,44.7,15.4
		c10.6,10.2,16,24.6,16,43.1V132.5z M2851.3,131.5c0,15,6.7,22.4,20.2,22.4c13.5,0,20.2-7.5,20.2-22.4v-30.9c0-14.7-6.7-22-20.2-22
		c-13.5,0-20.2,7.3-20.2,22V131.5z"/>
	<g>
		<path class="st4" d="M2412.2,166.9c0.5-4.8,2.6-9.5,6.3-13.2l26.3-26.4l9-9V61.9c0-11.5-9.3-20.8-20.8-20.8s-20.8,9.3-20.8,20.8
			v107.3c0,0.2,0,0.5,0,0.7c0-0.5,0-1,0-1.6C2412.1,167.9,2412.2,167.4,2412.2,166.9z"/>
		<path class="st0" d="M2558,155.9c-0.6-0.8-1.3-1.7-2.1-2.5l-37.6-37.6l-68.5,68.9c-3.5,3.5-7.8,5.5-12.4,6.2l103,0
			C2558.7,190.9,2568.5,169.9,2558,155.9z"/>
		<path class="st3" d="M2518.2,115.8L2518.2,115.8l37.1-37.2c8.6-8.6,8.5-22.5-0.1-31.1v0c-8.6-8.6-22.5-8.5-31.1,0.1l-37,37.2
			l-33.3,33.4l-9,9l-26.3,26.4c-3.7,3.7-5.8,8.4-6.3,13.2c-0.1,0.5-0.1,1-0.1,1.5c0,0.5,0,1,0,1.6c0,0.4,0,0.7,0.1,1.1
			c0,0.3,0.1,0.6,0.1,1c0.1,0.5,0.1,0.9,0.2,1.4c0,0.1,0,0.2,0.1,0.3c0.8,4.1,2.8,8,6,11.2v0c5.1,5.1,12.1,7.1,18.7,6.1
			c4.5-0.7,8.9-2.7,12.4-6.2L2518.2,115.8z"/>
	</g>
	<path class="st4" d="M2798.3,171.4c0.1-0.9,0.2-1.7,0.2-2.6V61c0-10.9-8.8-19.7-19.7-19.7l0,0c-10.9,0-19.7,8.8-19.7,19.7V102
		l-32.4-50.5c-0.6-0.9-1.3-1.8-2-2.6c-3.6-4.5-9.2-7.5-15.4-7.5h0c-10.9,0-19.7,8.8-19.7,19.7v107.8c0,10.9,8.8,19.7,19.7,19.7h0
		c10.9,0,19.7-8.8,19.7-19.7v-40.9l33.2,51.8c5.9,9.2,18,11.8,27.2,6c4.7-3,7.7-7.7,8.7-12.7c0.1-0.4,0.2-0.8,0.2-1.3
		C2798.3,171.6,2798.3,171.5,2798.3,171.4z"/>
</g>
<g>
	<path class="st4" d="M3365.7,41.4c10.5,0,19,8.5,19,19v0c0,10.5-8.5,19-19,19h-20.1v92.4c0,10.5-8.5,19-19,19h-2.7
		c-10.5,0-19-8.5-19-19V79.4h-20.1c-10.5,0-19-8.5-19-19v0c0-10.5,8.5-19,19-19H3365.7z"/>
	<path class="st4" d="M3481.9,154.3c9.9,0,17.9,8,17.9,17.9v0.8c0,9.9-8,17.9-17.9,17.9H3415c-9.9,0-17.9-8-17.9-17.9V59.2
		c0-9.9,8-17.9,17.9-17.9h63.3c9.9,0,17.9,8,17.9,17.9v0.8c0,9.9-8,17.9-17.9,17.9h-40.5v19.4h32.3c9.9,0,17.9,8,17.9,17.9v0
		c0,9.9-8,17.9-17.9,17.9h-32.3v21.1H3481.9z"/>
	<path class="st4" d="M3759.4,154.3c9.9,0,17.9,8,17.9,17.9v0.8c0,9.9-8,17.9-17.9,17.9h-66.9c-9.9,0-17.9-8-17.9-17.9V59.2
		c0-9.9,8-17.9,17.9-17.9h63.3c9.9,0,17.9,8,17.9,17.9v0.8c0,9.9-8,17.9-17.9,17.9h-40.5v19.4h32.3c9.9,0,17.9,8,17.9,17.9v0
		c0,9.9-8,17.9-17.9,17.9h-32.3v21.1H3759.4z"/>
	<path class="st4" d="M4032.1,132.5c0,18.5-5.3,32.9-16,43.3c-10.6,10.4-25.5,15.6-44.7,15.6c-19.1,0-34-5.2-44.7-15.6
		c-10.6-10.4-16-24.8-16-43.3V99.5c0-18.5,5.3-32.8,16-43.1c10.6-10.2,25.5-15.4,44.7-15.4c19.1,0,34,5.1,44.7,15.4
		c10.6,10.2,16,24.6,16,43.1V132.5z M3951.3,131.5c0,15,6.7,22.4,20.2,22.4c13.5,0,20.2-7.5,20.2-22.4v-30.9c0-14.7-6.7-22-20.2-22
		c-13.5,0-20.2,7.3-20.2,22V131.5z"/>
	<g>
		<path class="st2" d="M3512.2,166.9c0.5-4.8,2.6-9.5,6.3-13.2l26.3-26.4l9-9V61.9c0-11.5-9.3-20.8-20.8-20.8s-20.8,9.3-20.8,20.8
			v107.3c0,0.2,0,0.5,0,0.7c0-0.5,0-1,0-1.6C3512.1,167.9,3512.2,167.4,3512.2,166.9z"/>
		<path class="st0" d="M3658,155.9c-0.6-0.8-1.3-1.7-2.1-2.5l-37.6-37.6l-68.5,68.9c-3.5,3.5-7.8,5.5-12.4,6.2l103,0
			C3658.7,190.9,3668.5,169.9,3658,155.9z"/>
		<path class="st4" d="M3618.2,115.8L3618.2,115.8l37.1-37.2c8.6-8.6,8.5-22.5-0.1-31.1v0c-8.6-8.6-22.5-8.5-31.1,0.1l-37,37.2
			l-33.3,33.4l-9,9l-26.3,26.4c-3.7,3.7-5.8,8.4-6.3,13.2c-0.1,0.5-0.1,1-0.1,1.5c0,0.5,0,1,0,1.6c0,0.4,0,0.7,0.1,1.1
			c0,0.3,0.1,0.6,0.1,1c0.1,0.5,0.1,0.9,0.2,1.4c0,0.1,0,0.2,0.1,0.3c0.8,4.1,2.8,8,6,11.2v0c5.1,5.1,12.1,7.1,18.7,6.1
			c4.5-0.7,8.9-2.7,12.4-6.2L3618.2,115.8z"/>
	</g>
	<path class="st4" d="M3898.3,171.4c0.1-0.9,0.2-1.7,0.2-2.6V61c0-10.9-8.8-19.7-19.7-19.7l0,0c-10.9,0-19.7,8.8-19.7,19.7V102
		l-32.4-50.5c-0.6-0.9-1.3-1.8-2-2.6c-3.6-4.5-9.2-7.5-15.4-7.5h0c-10.9,0-19.7,8.8-19.7,19.7v107.8c0,10.9,8.8,19.7,19.7,19.7h0
		c10.9,0,19.7-8.8,19.7-19.7v-40.9l33.2,51.8c5.9,9.2,18,11.8,27.2,6c4.7-3,7.7-7.7,8.7-12.7c0.1-0.4,0.2-0.8,0.2-1.3
		C3898.3,171.6,3898.3,171.5,3898.3,171.4z"/>
</g>
<g>
	<path class="st4" d="M4465.7,41.4c10.5,0,19,8.5,19,19v0c0,10.5-8.5,19-19,19h-20.1v92.4c0,10.5-8.5,19-19,19h-2.7
		c-10.5,0-19-8.5-19-19V79.4h-20.1c-10.5,0-19-8.5-19-19v0c0-10.5,8.5-19,19-19H4465.7z"/>
	<path class="st4" d="M4581.9,154.3c9.9,0,17.9,8,17.9,17.9v0.8c0,9.9-8,17.9-17.9,17.9H4515c-9.9,0-17.9-8-17.9-17.9V59.2
		c0-9.9,8-17.9,17.9-17.9h63.3c9.9,0,17.9,8,17.9,17.9v0.8c0,9.9-8,17.9-17.9,17.9h-40.5v19.4h32.3c9.9,0,17.9,8,17.9,17.9v0
		c0,9.9-8,17.9-17.9,17.9h-32.3v21.1H4581.9z"/>
	<path class="st4" d="M4859.4,154.3c9.9,0,17.9,8,17.9,17.9v0.8c0,9.9-8,17.9-17.9,17.9h-66.9c-9.9,0-17.9-8-17.9-17.9V59.2
		c0-9.9,8-17.9,17.9-17.9h63.3c9.9,0,17.9,8,17.9,17.9v0.8c0,9.9-8,17.9-17.9,17.9h-40.5v19.4h32.3c9.9,0,17.9,8,17.9,17.9v0
		c0,9.9-8,17.9-17.9,17.9h-32.3v21.1H4859.4z"/>
	<path class="st4" d="M5132.1,132.5c0,18.5-5.3,32.9-16,43.3c-10.6,10.4-25.5,15.6-44.7,15.6c-19.1,0-34-5.2-44.7-15.6
		c-10.6-10.4-16-24.8-16-43.3V99.5c0-18.5,5.3-32.8,16-43.1c10.6-10.2,25.5-15.4,44.7-15.4c19.1,0,34,5.1,44.7,15.4
		c10.6,10.2,16,24.6,16,43.1V132.5z M5051.3,131.5c0,15,6.7,22.4,20.2,22.4c13.5,0,20.2-7.5,20.2-22.4v-30.9c0-14.7-6.7-22-20.2-22
		c-13.5,0-20.2,7.3-20.2,22V131.5z"/>
	<g>
		<path class="st2" d="M4612.2,166.9c0.5-4.8,2.6-9.5,6.3-13.2l26.3-26.4l9-9V61.9c0-11.5-9.3-20.8-20.8-20.8
			c-11.5,0-20.8,9.3-20.8,20.8v107.3c0,0.2,0,0.5,0,0.7c0-0.5,0-1,0-1.6C4612.1,167.9,4612.2,167.4,4612.2,166.9z"/>
		<path class="st4" d="M4758,155.9c-0.6-0.8-1.3-1.7-2.1-2.5l-37.6-37.6l-68.5,68.9c-3.5,3.5-7.8,5.5-12.4,6.2l103,0
			C4758.7,190.9,4768.5,169.9,4758,155.9z"/>
		<path class="st3" d="M4718.2,115.8L4718.2,115.8l37.1-37.2c8.6-8.6,8.5-22.5-0.1-31.1v0c-8.6-8.6-22.5-8.5-31.1,0.1l-37,37.2
			l-33.3,33.4l-9,9l-26.3,26.4c-3.7,3.7-5.8,8.4-6.3,13.2c-0.1,0.5-0.1,1-0.1,1.5c0,0.5,0,1,0,1.6c0,0.4,0,0.7,0.1,1.1
			c0,0.3,0.1,0.6,0.1,1c0.1,0.5,0.1,0.9,0.2,1.4c0,0.1,0,0.2,0.1,0.3c0.8,4.1,2.8,8,6,11.2v0c5.1,5.1,12.1,7.1,18.7,6.1
			c4.5-0.7,8.9-2.7,12.4-6.2L4718.2,115.8z"/>
	</g>
	<path class="st4" d="M4998.3,171.4c0.1-0.9,0.2-1.7,0.2-2.6V61c0-10.9-8.8-19.7-19.7-19.7l0,0c-10.9,0-19.7,8.8-19.7,19.7V102
		l-32.4-50.5c-0.6-0.9-1.3-1.8-2-2.6c-3.6-4.5-9.2-7.5-15.4-7.5l0,0c-10.9,0-19.7,8.8-19.7,19.7v107.8c0,10.9,8.8,19.7,19.7,19.7
		l0,0c10.9,0,19.7-8.8,19.7-19.7v-40.9l33.2,51.8c5.9,9.2,18,11.8,27.2,6c4.7-3,7.7-7.7,8.7-12.7c0.1-0.4,0.2-0.8,0.2-1.3
		C4998.3,171.6,4998.3,171.5,4998.3,171.4z"/>
</g>
<path class="st1" d="M-972.2-624.3c10.5,0,19,8.5,19,19v0c0,10.5-8.5,19-19,19h-20.1v92.4c0,10.5-8.5,19-19,19h-2.7
	c-10.5,0-19-8.5-19-19v-92.4h-20.1c-10.5,0-19-8.5-19-19v0c0-10.5,8.5-19,19-19H-972.2z"/>
<path class="st1" d="M-856-511.4c9.9,0,17.9,8,17.9,17.9v0.8c0,9.9-8,17.9-17.9,17.9h-66.9c-9.9,0-17.9-8-17.9-17.9v-113.7
	c0-9.9,8-17.9,17.9-17.9h63.3c9.9,0,17.9,8,17.9,17.9v0.8c0,9.9-8,17.9-17.9,17.9H-900v19.4h32.3c9.9,0,17.9,8,17.9,17.9l0,0
	c0,9.9-8,17.9-17.9,17.9H-900v21.1H-856z"/>
<path class="st1" d="M-578.4-511.4c9.9,0,17.9,8,17.9,17.9v0.8c0,9.9-8,17.9-17.9,17.9h-66.9c-9.9,0-17.9-8-17.9-17.9v-113.7
	c0-9.9,8-17.9,17.9-17.9h63.3c9.9,0,17.9,8,17.9,17.9v0.8c0,9.9-8,17.9-17.9,17.9h-40.5v19.4h32.3c9.9,0,17.9,8,17.9,17.9l0,0
	c0,9.9-8,17.9-17.9,17.9h-32.3v21.1H-578.4z"/>
<g>
	<path class="st3" d="M-825.7-498.8c0.5-4.8,2.6-9.5,6.3-13.2l26.3-26.4l9-9v-56.3c0-11.5-9.3-20.8-20.8-20.8
		c-11.5,0-20.8,9.3-20.8,20.8v107.3c0,0.2,0,0.5,0,0.7c0-0.5,0-1,0-1.6C-825.7-497.8-825.7-498.3-825.7-498.8z"/>
	<path class="st2" d="M-679.9-509.8c-0.6-0.8-1.3-1.7-2.1-2.5l-37.6-37.6l-68.5,68.9c-3.5,3.5-7.8,5.5-12.4,6.2l103,0
		C-679.1-474.8-669.4-495.8-679.9-509.8z"/>
	<path class="st0" d="M-719.7-549.9L-719.7-549.9l37.1-37.2c8.6-8.6,8.5-22.5-0.1-31.1v0c-8.6-8.6-22.5-8.5-31.1,0.1l-37,37.2
		l-33.3,33.4l-9,9l-26.3,26.4c-3.7,3.7-5.8,8.4-6.3,13.2c-0.1,0.5-0.1,1-0.1,1.5c0,0.5,0,1,0,1.6c0,0.4,0,0.7,0.1,1.1
		c0,0.3,0.1,0.6,0.1,1c0.1,0.5,0.1,0.9,0.2,1.4c0,0.1,0,0.2,0.1,0.3c0.8,4.1,2.8,8,6,11.2v0c5.1,5.1,12.1,7.1,18.7,6.1
		c4.5-0.7,8.9-2.7,12.4-6.2L-719.7-549.9z"/>
</g>
<g>
	<path class="st3" d="M-761.3-108c0.5-4.8,2.6-9.5,6.3-13.2l26.3-26.4l9-9V-213c0-11.5-9.3-20.8-20.8-20.8
		c-11.5,0-20.8,9.3-20.8,20.8v107.3c0,0.2,0,0.5,0,0.7c0-0.5,0-1,0-1.6C-761.4-107-761.4-107.5-761.3-108z"/>
	<path class="st2" d="M-615.6-119c-0.6-0.8-1.3-1.7-2.1-2.5l-37.6-37.6l-68.5,68.9c-3.5,3.5-7.8,5.5-12.4,6.2l103,0
		C-614.8-84-605.1-105-615.6-119z"/>
	<path class="st0" d="M-655.4-159.1L-655.4-159.1l37.1-37.2c8.6-8.6,8.5-22.5-0.1-31.1v0c-8.6-8.6-22.5-8.5-31.1,0.1l-37,37.2
		l-33.3,33.4l-9,9l-26.3,26.4c-3.7,3.7-5.8,8.4-6.3,13.2c-0.1,0.5-0.1,1-0.1,1.5c0,0.5,0,1,0,1.6c0,0.4,0,0.7,0.1,1.1
		c0,0.3,0.1,0.6,0.1,1c0.1,0.5,0.1,0.9,0.2,1.4c0,0.1,0,0.2,0.1,0.3c0.8,4.1,2.8,8,6,11.2v0c5.1,5.1,12.1,7.1,18.7,6.1
		c4.5-0.7,8.9-2.7,12.4-6.2L-655.4-159.1z"/>
</g>
<g>
	<path class="st1" d="M-1287.9,507.2c10.5,0,19,8.5,19,19v0c0,10.5-8.5,19-19,19h-20.1v92.4c0,10.5-8.5,19-19,19h-2.7
		c-10.5,0-19-8.5-19-19v-92.4h-20.1c-10.5,0-19-8.5-19-19v0c0-10.5,8.5-19,19-19H-1287.9z"/>
	<path class="st1" d="M-1171.7,620.1c9.9,0,17.9,8,17.9,17.9v0.8c0,9.9-8,17.9-17.9,17.9h-66.9c-9.9,0-17.9-8-17.9-17.9V525.1
		c0-9.9,8-17.9,17.9-17.9h63.3c9.9,0,17.9,8,17.9,17.9v0.8c0,9.9-8,17.9-17.9,17.9h-40.5v19.4h32.3c9.9,0,17.9,8,17.9,17.9v0
		c0,9.9-8,17.9-17.9,17.9h-32.3v21.1H-1171.7z"/>
	<path class="st1" d="M-894.1,620.1c9.9,0,17.9,8,17.9,17.9v0.8c0,9.9-8,17.9-17.9,17.9H-961c-9.9,0-17.9-8-17.9-17.9V525.1
		c0-9.9,8-17.9,17.9-17.9h63.3c9.9,0,17.9,8,17.9,17.9v0.8c0,9.9-8,17.9-17.9,17.9h-40.5v19.4h32.3c9.9,0,17.9,8,17.9,17.9v0
		c0,9.9-8,17.9-17.9,17.9h-32.3v21.1H-894.1z"/>
	<path class="st1" d="M-621.4,598.4c0,18.5-5.3,32.9-16,43.3c-10.6,10.4-25.5,15.6-44.7,15.6c-19.1,0-34-5.2-44.7-15.6
		c-10.6-10.4-16-24.8-16-43.3v-32.9c0-18.5,5.3-32.8,16-43.1c10.6-10.2,25.5-15.4,44.7-15.4c19.1,0,34,5.1,44.7,15.4
		c10.6,10.2,16,24.6,16,43.1V598.4z M-702.3,597.4c0,15,6.7,22.4,20.2,22.4c13.5,0,20.2-7.5,20.2-22.4v-30.9c0-14.7-6.7-22-20.2-22
		c-13.5,0-20.2,7.3-20.2,22V597.4z"/>
	<g>
		<path class="st2" d="M-1141.3,632.8c0.5-4.8,2.6-9.5,6.3-13.2l26.3-26.4l9-9v-56.3c0-11.5-9.3-20.8-20.8-20.8
			c-11.5,0-20.8,9.3-20.8,20.8v107.3c0,0.2,0,0.5,0,0.7c0-0.5,0-1,0-1.6C-1141.4,633.7-1141.4,633.2-1141.3,632.8z"/>
		<path class="st0" d="M-995.6,621.8c-0.6-0.8-1.3-1.7-2.1-2.5l-37.6-37.6l-68.5,68.9c-3.5,3.5-7.8,5.5-12.4,6.2l103,0
			C-994.8,656.8-985.1,635.8-995.6,621.8z"/>
		<path class="st3" d="M-1035.3,581.7L-1035.3,581.7l37.1-37.2c8.6-8.6,8.5-22.5-0.1-31.1v0c-8.6-8.6-22.5-8.5-31.1,0.1l-37,37.2
			l-33.3,33.4l-9,9l-26.3,26.4c-3.7,3.7-5.8,8.4-6.3,13.2c-0.1,0.5-0.1,1-0.1,1.5c0,0.5,0,1,0,1.6c0,0.4,0,0.7,0.1,1.1
			c0,0.3,0.1,0.6,0.1,1c0.1,0.5,0.1,0.9,0.2,1.4c0,0.1,0,0.2,0.1,0.3c0.8,4.1,2.8,8,6,11.2v0c5.1,5.1,12.1,7.1,18.7,6.1
			c4.5-0.7,8.9-2.7,12.4-6.2L-1035.3,581.7z"/>
	</g>
	<path class="st1" d="M-755.3,637.3c0.1-0.9,0.2-1.7,0.2-2.6V526.9c0-10.9-8.8-19.7-19.7-19.7l0,0c-10.9,0-19.7,8.8-19.7,19.7v40.9
		l-32.4-50.5c-0.6-0.9-1.3-1.8-2-2.6c-3.6-4.5-9.2-7.5-15.4-7.5h0c-10.9,0-19.7,8.8-19.7,19.7v107.8c0,10.9,8.8,19.7,19.7,19.7h0
		c10.9,0,19.7-8.8,19.7-19.7v-40.9l33.2,51.8c5.9,9.2,18,11.8,27.2,6c4.7-3,7.7-7.7,8.7-12.7c0.1-0.4,0.2-0.8,0.2-1.3
		C-755.3,637.5-755.3,637.4-755.3,637.3z"/>
</g>
<g>
	<g>
		<path class="st4" d="M-1294.7,112.1V62c0-11.5-9.4-20.9-20.9-20.9c-11.5,0-20.9,9.4-20.9,20.9v93.6c1.1-2.1,2.5-4,4.2-5.7
			L-1294.7,112.1z"/>
		<path class="st4" d="M-1192.4,153.8l-35.6-33.6l-66.8,67.1c-1.6,1.6-3.4,3-5.4,4.1l92.1,0c18.5,0,28.3-21.1,17.7-35.1
			C-1190.9,155.4-1191.6,154.6-1192.4,153.8z"/>
		<path class="st4" d="M-1230.1,116.1L-1230.1,116.1l37.2-37.3c8.6-8.6,8.6-22.6-0.1-31.2v0c-8.6-8.6-22.6-8.6-31.2,0.1l-37.1,37.3
			l-33.4,33.5l-9,9.1l-26.4,26.5c-3.7,3.7-5.8,8.4-6.3,13.2c-0.1,0.5-0.1,1-0.1,1.5c0,0.5,0,1,0,1.6c0,0.4,0,0.7,0.1,1.1
			c0,0.3,0.1,0.6,0.1,1c0.1,0.5,0.1,0.9,0.2,1.4c0,0.1,0,0.2,0.1,0.3c0.8,4.1,2.8,8,6,11.2v0c5.1,5.1,12.2,7.1,18.8,6.2
			c4.5-0.7,8.9-2.7,12.4-6.2L-1230.1,116.1z"/>
	</g>
	<g>
		<path class="st4" d="M-1483,41.4c10.5,0,19,8.5,19,19v0c0,10.5-8.5,19-19,19h-20.1v92.4c0,10.5-8.5,19-19,19h-2.7
			c-10.5,0-19-8.5-19-19V79.4h-20.1c-10.5,0-19-8.5-19-19v0c0-10.5,8.5-19,19-19H-1483z"/>
		<path class="st4" d="M-1366.8,154.3c9.9,0,17.9,8,17.9,17.9v0.8c0,9.9-8,17.9-17.9,17.9h-66.9c-9.9,0-17.9-8-17.9-17.9V59.2
			c0-9.9,8-17.9,17.9-17.9h63.3c9.9,0,17.9,8,17.9,17.9v0.8c0,9.9-8,17.9-17.9,17.9h-40.5v19.4h32.3c9.9,0,17.9,8,17.9,17.9v0
			c0,9.9-8,17.9-17.9,17.9h-32.3v21.1H-1366.8z"/>
		<path class="st4" d="M-1089.3,154.3c9.9,0,17.9,8,17.9,17.9v0.8c0,9.9-8,17.9-17.9,17.9h-66.9c-9.9,0-17.9-8-17.9-17.9V59.2
			c0-9.9,8-17.9,17.9-17.9h63.3c9.9,0,17.9,8,17.9,17.9v0.8c0,9.9-8,17.9-17.9,17.9h-40.5v19.4h32.3c9.9,0,17.9,8,17.9,17.9v0
			c0,9.9-8,17.9-17.9,17.9h-32.3v21.1H-1089.3z"/>
		<path class="st4" d="M-816.6,132.5c0,18.5-5.3,32.9-16,43.3c-10.6,10.4-25.5,15.6-44.7,15.6c-19.1,0-34-5.2-44.7-15.6
			c-10.6-10.4-16-24.8-16-43.3V99.5c0-18.5,5.3-32.8,16-43.1c10.6-10.2,25.5-15.4,44.7-15.4c19.1,0,34,5.1,44.7,15.4
			c10.6,10.2,16,24.6,16,43.1V132.5z M-897.4,131.5c0,15,6.7,22.4,20.2,22.4c13.5,0,20.2-7.5,20.2-22.4v-30.9c0-14.7-6.7-22-20.2-22
			c-13.5,0-20.2,7.3-20.2,22V131.5z"/>
		<path class="st4" d="M-950.4,171.4c0.1-0.9,0.2-1.7,0.2-2.6V61c0-10.9-8.8-19.7-19.7-19.7l0,0c-10.9,0-19.7,8.8-19.7,19.7V102
			l-32.4-50.5c-0.6-0.9-1.3-1.8-2-2.6c-3.6-4.5-9.2-7.5-15.4-7.5h0c-10.9,0-19.7,8.8-19.7,19.7v107.8c0,10.9,8.8,19.7,19.7,19.7h0
			c10.9,0,19.7-8.8,19.7-19.7v-40.9l33.2,51.8c5.9,9.2,18,11.8,27.2,6c4.7-3,7.7-7.7,8.7-12.7c0.1-0.4,0.2-0.8,0.2-1.3
			C-950.4,171.6-950.4,171.5-950.4,171.4z"/>
	</g>
</g>
<g>
	<g>
		<path class="st4" d="M-1294.7-124.5v-50.1c0-11.5-9.4-20.9-20.9-20.9c-11.5,0-20.9,9.4-20.9,20.9V-81c1.1-2.1,2.5-4,4.2-5.7
			L-1294.7-124.5z"/>
		<path class="st4" d="M-1192.4-82.8l-35.6-33.6l-66.8,67.1c-1.6,1.6-3.4,3-5.4,4.1l92.1,0c18.5,0,28.3-21.1,17.7-35.1
			C-1190.9-81.2-1191.6-82-1192.4-82.8z"/>
		<path class="st4" d="M-1230.1-120.5L-1230.1-120.5l37.2-37.3c8.6-8.6,8.6-22.6-0.1-31.2v0c-8.6-8.6-22.6-8.6-31.2,0.1l-37.1,37.3
			l-33.4,33.5l-9,9.1l-26.4,26.5c-3.7,3.7-5.8,8.4-6.3,13.2c-0.1,0.5-0.1,1-0.1,1.5c0,0.5,0,1,0,1.6c0,0.4,0,0.7,0.1,1.1
			c0,0.3,0.1,0.6,0.1,1c0.1,0.5,0.1,0.9,0.2,1.4c0,0.1,0,0.2,0.1,0.3c0.8,4.1,2.8,8,6,11.2v0c5.1,5.1,12.2,7.1,18.8,6.2
			c4.5-0.7,8.9-2.7,12.4-6.2L-1230.1-120.5z"/>
	</g>
	<g>
		<path class="st4" d="M-1483-195.2c10.5,0,19,8.5,19,19v0c0,10.5-8.5,19-19,19h-20.1v92.4c0,10.5-8.5,19-19,19h-2.7
			c-10.5,0-19-8.5-19-19v-92.4h-20.1c-10.5,0-19-8.5-19-19v0c0-10.5,8.5-19,19-19H-1483z"/>
		<path class="st4" d="M-1366.8-82.4c9.9,0,17.9,8,17.9,17.9v0.8c0,9.9-8,17.9-17.9,17.9h-66.9c-9.9,0-17.9-8-17.9-17.9v-113.7
			c0-9.9,8-17.9,17.9-17.9h63.3c9.9,0,17.9,8,17.9,17.9v0.8c0,9.9-8,17.9-17.9,17.9h-40.5v19.4h32.3c9.9,0,17.9,8,17.9,17.9v0
			c0,9.9-8,17.9-17.9,17.9h-32.3v21.1H-1366.8z"/>
		<path class="st4" d="M-1089.3-82.4c9.9,0,17.9,8,17.9,17.9v0.8c0,9.9-8,17.9-17.9,17.9h-66.9c-9.9,0-17.9-8-17.9-17.9v-113.7
			c0-9.9,8-17.9,17.9-17.9h63.3c9.9,0,17.9,8,17.9,17.9v0.8c0,9.9-8,17.9-17.9,17.9h-40.5v19.4h32.3c9.9,0,17.9,8,17.9,17.9v0
			c0,9.9-8,17.9-17.9,17.9h-32.3v21.1H-1089.3z"/>
		<path class="st4" d="M-816.6-104.1c0,18.5-5.3,32.9-16,43.3c-10.6,10.4-25.5,15.6-44.7,15.6c-19.1,0-34-5.2-44.7-15.6
			c-10.6-10.4-16-24.8-16-43.3v-32.9c0-18.5,5.3-32.8,16-43.1c10.6-10.2,25.5-15.4,44.7-15.4c19.1,0,34,5.1,44.7,15.4
			c10.6,10.2,16,24.6,16,43.1V-104.1z M-897.4-105.1c0,15,6.7,22.4,20.2,22.4c13.5,0,20.2-7.5,20.2-22.4V-136c0-14.7-6.7-22-20.2-22
			c-13.5,0-20.2,7.3-20.2,22V-105.1z"/>
		<path class="st4" d="M-950.4-65.2c0.1-0.9,0.2-1.7,0.2-2.6v-107.8c0-10.9-8.8-19.7-19.7-19.7l0,0c-10.9,0-19.7,8.8-19.7,19.7v40.9
			l-32.4-50.5c-0.6-0.9-1.3-1.8-2-2.6c-3.6-4.5-9.2-7.5-15.4-7.5h0c-10.9,0-19.7,8.8-19.7,19.7v107.8c0,10.9,8.8,19.7,19.7,19.7h0
			c10.9,0,19.7-8.8,19.7-19.7v-40.9l33.2,51.8c5.9,9.2,18,11.8,27.2,6c4.7-3,7.7-7.7,8.7-12.7c0.1-0.4,0.2-0.8,0.2-1.3
			C-950.4-65-950.4-65.1-950.4-65.2z"/>
	</g>
</g>
<g>
	<g>
		<path class="st2" d="M102.3,1389.5c1.7-15.8,8.5-31.3,20.6-43.4l86.5-87l29.6-29.7v-185.1c0-37.9-30.7-68.6-68.6-68.6
			c-37.9,0-68.6,30.7-68.6,68.6v353c0,0.8,0.1,1.5,0.1,2.3c-0.1-1.7-0.1-3.4-0.1-5.1C102,1392.7,102.1,1391.1,102.3,1389.5z"/>
		<path class="st0" d="M581.7,1353.3c-2.1-2.8-4.4-5.5-7-8.1l-123.8-123.7l-225.5,226.6c-11.4,11.5-25.8,18.2-40.6,20.4l338.8,0
			C584.3,1468.5,616.4,1399.4,581.7,1353.3z"/>
		<path class="st3" d="M450.9,1221.5L450.9,1221.5L572.8,1099c28.2-28.3,28.1-74.1-0.3-102.3v0c-28.3-28.2-74.1-28.1-102.3,0.3
			l-121.8,122.4l-109.4,110l-29.6,29.7l-86.5,87c-12.1,12.2-19,27.6-20.6,43.4c-0.2,1.6-0.2,3.3-0.3,4.9c-0.1,1.7,0,3.4,0.1,5.1
			c0,1.2,0.1,2.3,0.2,3.5c0.1,1.1,0.2,2.1,0.4,3.2c0.2,1.5,0.4,3,0.7,4.5c0.1,0.3,0.1,0.6,0.2,0.9c2.7,13.5,9.2,26.3,19.7,36.8v0
			c16.8,16.8,39.8,23.4,61.7,20.2c14.9-2.2,29.2-9,40.6-20.4L450.9,1221.5z"/>
	</g>
</g>
<g>
	<g>
		<path class="st2" d="M1202.3,1389.5c1.7-15.8,8.5-31.3,20.6-43.4l86.5-87l29.6-29.7v-185.1c0-37.9-30.7-68.6-68.6-68.6
			c-37.9,0-68.6,30.7-68.6,68.6v353c0,0.8,0.1,1.5,0.1,2.3c-0.1-1.7-0.1-3.4-0.1-5.1C1202,1392.7,1202.1,1391.1,1202.3,1389.5z"/>
		<path class="st0" d="M1681.7,1353.3c-2.1-2.8-4.4-5.5-7-8.1l-123.8-123.7l-225.5,226.6c-11.4,11.5-25.8,18.2-40.6,20.4l338.8,0
			C1684.3,1468.5,1716.4,1399.4,1681.7,1353.3z"/>
		<path class="st3" d="M1550.9,1221.5L1550.9,1221.5l121.9-122.5c28.2-28.3,28.1-74.1-0.3-102.3v0c-28.3-28.2-74.1-28.1-102.3,0.3
			l-121.8,122.4l-109.4,110l-29.6,29.7l-86.5,87c-12.1,12.2-19,27.6-20.6,43.4c-0.2,1.6-0.2,3.3-0.3,4.9c-0.1,1.7,0,3.4,0.1,5.1
			c0,1.2,0.1,2.3,0.2,3.5c0.1,1.1,0.2,2.1,0.4,3.2c0.2,1.5,0.4,3,0.7,4.5c0.1,0.3,0.1,0.6,0.2,0.9c2.7,13.5,9.2,26.3,19.7,36.8v0
			c16.8,16.8,39.8,23.4,61.7,20.2c14.9-2.2,29.2-9,40.6-20.4L1550.9,1221.5z"/>
	</g>
</g>
<g>
	<g>
		<path class="st4" d="M2302.3,1389.5c1.7-15.8,8.5-31.3,20.6-43.4l86.5-87l29.6-29.7v-185.1c0-37.9-30.7-68.6-68.6-68.6
			c-37.9,0-68.6,30.7-68.6,68.6v353c0,0.8,0.1,1.5,0.1,2.3c-0.1-1.7-0.1-3.4-0.1-5.1C2302,1392.7,2302.1,1391.1,2302.3,1389.5z"/>
		<path class="st4" d="M2781.7,1353.3c-2.1-2.8-4.4-5.5-7-8.1l-123.8-123.7l-225.5,226.6c-11.4,11.5-25.8,18.2-40.6,20.4l338.8,0
			C2784.3,1468.5,2816.4,1399.4,2781.7,1353.3z"/>
		<path class="st2" d="M2374.1,1479.3c-21.9,0-42.5-8.5-58-23.9c-11.4-11.4-19.2-25.9-22.4-41.9l0-0.2c-0.1-0.3-0.1-0.6-0.2-0.8
			c-0.3-1.6-0.5-3.2-0.8-5.2l-0.1-0.5c-0.1-0.9-0.3-2-0.3-3.1c-0.1-1.4-0.2-2.8-0.2-4l0-0.5c-0.1-1.7-0.1-3.4,0-5.3
			c0.1-1.7,0.1-3.6,0.4-5.6c2-18.6,10.3-36.2,23.5-49.4l347.4-349.1c15.6-15.6,36.3-24.3,58.4-24.3c21.9,0,42.5,8.5,58.1,24
			c15.6,15.5,24.2,36.2,24.3,58.2c0.1,22-8.5,42.7-24,58.3l-347.4,349.1c-12.5,12.6-28.5,20.7-46.3,23.3
			C2382.3,1479,2378.2,1479.3,2374.1,1479.3C2374.1,1479.3,2374.1,1479.3,2374.1,1479.3z"/>
		<path class="st4" d="M2650.9,1221.5L2650.9,1221.5l121.9-122.5c28.2-28.3,28.1-74.1-0.3-102.3v0c-28.3-28.2-74.1-28.1-102.3,0.3
			l-121.8,122.4l-109.4,110l-29.6,29.7l-86.5,87c-12.1,12.2-19,27.6-20.6,43.4c-0.2,1.6-0.2,3.3-0.3,4.9c-0.1,1.7,0,3.4,0.1,5.1
			c0,1.2,0.1,2.3,0.2,3.5c0.1,1.1,0.2,2.1,0.4,3.2c0.2,1.5,0.4,3,0.7,4.5c0.1,0.3,0.1,0.6,0.2,0.9c2.7,13.5,9.2,26.3,19.7,36.8v0
			c16.8,16.8,39.8,23.4,61.7,20.2c14.9-2.2,29.2-9,40.6-20.4L2650.9,1221.5z"/>
	</g>
</g>
<g>
	<g>
		<path class="st2" d="M3402.3,1389.5c1.7-15.8,8.5-31.3,20.6-43.4l86.5-87l29.6-29.7v-185.1c0-37.9-30.7-68.6-68.6-68.6
			c-37.9,0-68.6,30.7-68.6,68.6v353c0,0.8,0.1,1.5,0.1,2.3c-0.1-1.7-0.1-3.4-0.1-5.1C3402,1392.7,3402.1,1391.1,3402.3,1389.5z"/>
		<path class="st0" d="M3881.7,1353.3c-2.1-2.8-4.4-5.5-7-8.1l-123.8-123.7l-225.5,226.6c-11.4,11.5-25.8,18.2-40.6,20.4l338.8,0
			C3884.3,1468.5,3916.4,1399.4,3881.7,1353.3z"/>
		<path class="st4" d="M3750.9,1221.5L3750.9,1221.5l121.9-122.5c28.2-28.3,28.1-74.1-0.3-102.3v0c-28.3-28.2-74.1-28.1-102.3,0.3
			l-121.8,122.4l-109.4,110l-29.6,29.7l-86.5,87c-12.1,12.2-19,27.6-20.6,43.4c-0.2,1.6-0.2,3.3-0.3,4.9c-0.1,1.7,0,3.4,0.1,5.1
			c0,1.2,0.1,2.3,0.2,3.5c0.1,1.1,0.2,2.1,0.4,3.2c0.2,1.5,0.4,3,0.7,4.5c0.1,0.3,0.1,0.6,0.2,0.9c2.7,13.5,9.2,26.3,19.7,36.8v0
			c16.8,16.8,39.8,23.4,61.7,20.2c14.9-2.2,29.2-9,40.6-20.4L3750.9,1221.5z"/>
	</g>
</g>
<g>
	<g>
		<path class="st2" d="M4502.3,1389.5c1.7-15.8,8.5-31.3,20.6-43.4l86.5-87l29.6-29.7v-185.1c0-37.9-30.7-68.6-68.6-68.6
			c-37.9,0-68.6,30.7-68.6,68.6v353c0,0.8,0.1,1.5,0.1,2.3c-0.1-1.7-0.1-3.4-0.1-5.1C4502,1392.7,4502.1,1391.1,4502.3,1389.5z"/>
		<path class="st4" d="M4981.7,1353.3c-2.1-2.8-4.4-5.5-7-8.1l-123.8-123.7l-225.5,226.6c-11.4,11.5-25.8,18.2-40.6,20.4l338.8,0
			C4984.3,1468.5,5016.4,1399.4,4981.7,1353.3z"/>
		<path class="st3" d="M4850.9,1221.5L4850.9,1221.5l121.9-122.5c28.2-28.3,28.1-74.1-0.2-102.3v0c-28.3-28.2-74.1-28.1-102.3,0.3
			l-121.8,122.4l-109.4,110l-29.6,29.7l-86.5,87c-12.1,12.2-19,27.6-20.6,43.4c-0.2,1.6-0.2,3.3-0.3,4.9c-0.1,1.7,0,3.4,0.1,5.1
			c0,1.2,0.1,2.3,0.2,3.5c0.1,1.1,0.2,2.1,0.4,3.2c0.2,1.5,0.4,3,0.7,4.5c0.1,0.3,0.1,0.6,0.2,0.9c2.7,13.5,9.2,26.3,19.7,36.8v0
			c16.8,16.8,39.8,23.4,61.7,20.2c14.9-2.2,29.2-9,40.6-20.4L4850.9,1221.5z"/>
	</g>
</g>
<g>
	<path class="st5" d="M-366.4-587.2c-13.5,0-20.2,7.3-20.2,22v30.9c0,15,6.7,22.4,20.2,22.4c13.5,0,20.2-7.5,20.2-22.4v-30.9
		C-346.2-579.8-352.9-587.2-366.4-587.2z"/>
	<path class="st1" d="M-305.7-533.2v-32.9c0-18.5-5.3-32.8-16-43.1c-10.6-10.2-25.5-15.4-44.7-15.4c-19.1,0-34,5.1-44.7,15.4
		c-10.6,10.2-16,24.6-16,43.1v32.9c0,16,4,29,12,38.9l105.3-14.2C-307.1-515.7-305.7-524-305.7-533.2z M-346.2-534.2
		c0,15-6.7,22.4-20.2,22.4c-13.5,0-20.2-7.5-20.2-22.4v-30.9c0-14.7,6.7-22,20.2-22c13.5,0,20.2,7.3,20.2,22V-534.2z"/>
	<path class="st1" d="M-439.8-492.7c0.1-0.4,0.2-0.8,0.2-1.3c0-0.1,0-0.2,0-0.3c0.1-0.9,0.2-1.7,0.2-2.6v-107.8
		c0-10.9-8.8-19.7-19.7-19.7c-10.9,0-19.7,8.8-19.7,19.7v40.9l-32.4-50.5c-0.6-0.9-1.3-1.8-2-2.6c-3.6-4.5-9.2-7.5-15.4-7.5l0,0
		c-10.9,0-19.7,8.8-19.7,19.7v107.8c0,10.9,8.8,19.7,19.7,19.7l0,0c10.9,0,19.7-8.8,19.7-19.7v-40.9l33.1,51.7l35.5-4.8
		C-440.1-491.5-440-492.1-439.8-492.7z"/>
</g>
<text transform="matrix(0.991 -0.1341 0.1341 0.991 -456.3468 -411.7208)" class="st4" style="font-family:'Aharoni-Bold'; font-size:57.3154px;">RACK</text>
<g>
	<path class="st4" d="M-748.7,0.4c-11.9,0-22.3-10-24.1-23.3l-5.4-40.2c-0.9-6.8,0.5-13.5,4-19c3.7-5.8,9.4-9.5,15.8-10.4l140.3-19
		c0.9-0.1,1.9-0.2,2.8-0.2c5.1,0,10,1.8,14.1,5.1l21.8,17.5c11.2,9,13.6,26.6,5.2,38.3l-16.4,22.7c-3.7,5.2-9.1,8.5-15,9.3
		l-140.3,19C-746.8,0.3-747.7,0.4-748.7,0.4z"/>
	<path class="st0" d="M-606.5-25.9l-140.3,19c-9,1.2-17.5-6.4-18.9-17l-5.4-40.2c-1.4-10.6,4.7-20.2,13.7-21.4l140.3-19
		c4-0.5,8.1,0.7,11.6,3.4l21.8,17.5c8.3,6.6,10.1,20,3.9,28.6l-16.4,22.7C-598.8-28.7-602.4-26.4-606.5-25.9z"/>
	
		<text transform="matrix(0.991 -0.1341 0.1341 0.991 -741.3559 -32.694)" class="st4" style="font-family:'Aharoni-Bold'; font-size:46.2361px;">RACK</text>
	<circle class="st4" cx="-596.4" cy="-67.2" r="9.4"/>
</g>
<g>
	<path class="st4" d="M117.5,53.2c9.4,0,16.9,7.6,16.9,16.9v0c0,9.4-7.6,17-17,17H99.7v82.3c0,9.4-7.6,16.9-16.9,16.9h-2.4
		c-9.4,0-17-7.6-17-17V87.1H45.5c-9.4,0-17-7.6-17-17v0c0-9.4,7.6-16.9,16.9-16.9H117.5z"/>
	<path class="st4" d="M364.4,153.8c8.8,0,15.9,7.1,15.9,15.9v0.7c0,8.8-7.1,15.9-15.9,15.9h-59.6c-8.8,0-15.9-7.1-15.9-15.9V69.1
		c0-8.8,7.1-15.9,15.9-15.9h56.4c8.8,0,15.9,7.1,15.9,15.9v0.7c0,8.8-7.1,15.9-15.9,15.9h-36v17.3H354c8.8,0,15.9,7.1,15.9,15.9v0
		c0,8.8-7.1,15.9-15.9,15.9h-28.8v18.8H364.4z"/>
	<path class="st4" d="M607.4,134.4c0,16.4-4.7,29.3-14.2,38.5c-9.5,9.2-22.8,13.9-39.8,13.9c-17,0-30.3-4.6-39.8-13.9
		c-9.5-9.2-14.2-22.1-14.2-38.5V105c0-16.4,4.7-29.2,14.2-38.4C523,57.5,536.3,53,553.3,53c17,0,30.3,4.6,39.8,13.7
		c9.5,9.1,14.2,21.9,14.2,38.4V134.4z M535.3,133.5c0,13.3,6,20,18,20c12,0,18-6.7,18-20v-27.6c0-13.1-6-19.6-18-19.6
		c-12,0-18,6.5-18,19.6V133.5z"/>
	<g>
		<g>
			<path class="st2" d="M181.2,112.1V71.5c0-10.3-8.3-18.6-18.6-18.6c-10.3,0-18.6,8.3-18.6,18.6v78c0.3-0.3,0.6-0.7,0.9-1
				L181.2,112.1z"/>
			<path class="st0" d="M272.1,153l-28.7-28.7l-61.1,61.4c-0.3,0.3-0.6,0.5-0.8,0.8l76.8,0c16.4,0,25.1-18.7,15.7-31.2
				C273.4,154.5,272.8,153.7,272.1,153z"/>
		</g>
		<path class="st3" d="M238.6,119.5L238.6,119.5l33-33.2c7.6-7.7,7.6-20.1-0.1-27.7v0c-7.7-7.6-20.1-7.6-27.7,0.1l-33,33.2
			l-29.6,29.8l-8,8.1l-23.4,23.6c-3.3,3.3-5.1,7.5-5.6,11.8c0,0.4-0.1,0.9-0.1,1.3c0,0.5,0,0.9,0,1.4c0,0.3,0,0.6,0,0.9
			c0,0.3,0.1,0.6,0.1,0.9c0.1,0.4,0.1,0.8,0.2,1.2c0,0.1,0,0.2,0.1,0.2c0.7,3.6,2.5,7.1,5.3,10v0c4.6,4.5,10.8,6.3,16.7,5.5
			c4-0.6,7.9-2.4,11-5.5L238.6,119.5z"/>
	</g>
	<path class="st4" d="M488.1,169.1c0.1-0.8,0.2-1.5,0.2-2.3v-96c0-9.7-7.8-17.5-17.5-17.5l0,0c-9.7,0-17.5,7.8-17.5,17.5v36.5
		l-28.8-45c-0.5-0.8-1.1-1.6-1.8-2.3c-3.2-4-8.2-6.7-13.7-6.7h0c-9.7,0-17.5,7.8-17.5,17.5v96c0,9.7,7.8,17.5,17.5,17.5h0
		c9.7,0,17.5-7.8,17.5-17.5v-36.4l29.5,46.1c5.2,8.2,16.1,10.5,24.2,5.3c4.2-2.7,6.8-6.8,7.7-11.3c0.1-0.4,0.1-0.8,0.2-1.1
		C488.1,169.2,488.1,169.1,488.1,169.1z"/>
	<g>
		<path class="st4" d="M704.6,115.2c6,2.4,10.6,6,13.8,10.9c3.2,4.9,4.9,10.9,4.9,18c0,13.5-4,23.9-12,31.4
			c-8,7.5-19.2,11.2-33.8,11.2h-43.7c-7.7,0-14-6.3-14-14V67.2c0-7.7,6.3-14,14-14h42.8c13,0,23,3.4,30.3,10.2
			c7.2,6.8,10.8,16.3,10.8,28.5C717.6,102.1,713.3,109.9,704.6,115.2z M669.8,84.2h-13.6v19.6h13.6c3.6,0,6.3-0.8,8-2.4
			c1.7-1.6,2.6-4.1,2.6-7.5C680.5,87.4,676.9,84.2,669.8,84.2z M674.1,154.8c3.6,0,6.5-1,8.6-3.1c2.1-2.1,3.2-5,3.2-8.9
			c0-7.5-4.4-11.2-13.1-11.2h-16.6v23.2H674.1z"/>
		<path class="st4" d="M768.6,173.4c0,7.4-6,13.4-13.4,13.4h-9.6c-7.4,0-13.4-6-13.4-13.4V66.6c0-7.4,6-13.4,13.4-13.4h9.6
			c7.4,0,13.4,6,13.4,13.4V173.4z"/>
	</g>
</g>
<path d="M689.7-932.5c0-8.8,0-17.5,0-26.4c7-0.8,11.8-0.7,15.1,6.7c4.6,10.6,14.6,13.9,25.6,14c1.3,0,3.5-1.8,3.6-2.9
	c0.5-4.3,2.9-4.3,6.1-3.6c8.6,1.9,11.6,5.1,12.3,13.9c2.9,0,5.9,0,9.3,0c0.2-3.2,0.4-6.4,0.6-9.9c2.5,0,4.6,0,7.2,0
	c0.2,3.3,0.4,6.3,0.7,9.9c2,0.2,4,0.4,6.7,0.6c0-7.6,0-14.7,0-24c6.7,3.6,11.9,6.4,17.1,9.3c-0.2,0.6-0.4,1.2-0.6,1.8
	c2.1-1.6,3.9-3.7,6.2-4.5c1.6-0.6,3.8,0.5,5.8,0.9c2.9,0.5,6.7,2.4,8.7,1.2c5.9-3.6,10.2-2.8,14,2.6c6.3-5.9,11-5.2,16.3,1.2
	c1.1,1.3,3.3,2.5,5,2.5c49.6,0.1,99.2,0.1,148.8,0c1.9,0,4.7-1.7,5.7-3.4c3.2-5.4,7.8-4.5,12.5-3.5c2.9,0.6,5.7,2.3,8.5,2.3
	c15.9,0.1,31.8-0.1,47.7-0.2c1,0,2.6,0.3,3-0.2c4.4-5.9,8.7-3.8,12.8,0.2c1.6,1.5,3.8,3.3,4.1,5.2c2.9,21,2.8,42-0.1,62.9
	c-0.9,6.3-9.4,9.5-15.1,6.6c-2.8-1.4-6.4-1.8-9.7-1.9c-16.3-0.2-32.7-0.1-49.9-0.1c-3.9,4.4-9.2,3.9-13.8-1.6
	c-1.5-1.9-4.6-3.5-6.9-3.6c-49-0.2-98-0.2-146.9,0c-2.2,0-5,1.6-6.3,3.3c-4.1,5.4-7.6,5.9-13.6,1.7c-1-0.7-4.1,0-5,1
	c-3.1,3.8-5.2,3.6-9,0.3c-2-1.7-8-2.1-9.4-0.5c-4.4,4.7-7.1,3.4-10.5-0.6c-0.6-0.7-1.7-1-2,0.2c-5.2,2.8-10.5,5.5-17.1,9
	c0-9,0-15.9,0-22.6c-6.8-1.6-6.8-1.6-8,9.3c-2,0.2-4.2,0.4-6.7,0.6c-0.2-1.9-0.3-3.5-0.4-5.1c-0.1-1.6,0-3.3,0-5.4
	c-3.3,0-6.3,0-9.8,0c1.3,7.6-3.3,10.9-9.6,12.6c-3.7,1-7.8,2.7-9.2-3.5c-0.2-1.1-3.3-2.1-5.1-2.1c-10.2,0.3-18.1,4.3-23.4,13.6
	c-4.6,8.1-4.9,7.9-15.4,7.4c0-4.2,0-8.5,0-12.7c0-4.3,0-8.6,0-12.6c-14.5,0-28.5,0-42.4,0c-194.5-0.1-388.9-0.1-583.4-0.2
	c-44.8,0-89.7-0.4-134.5-0.9c-5.6-0.1-11.5-1.5-16.7-3.8c-9.3-4-14.3-11.5-14-22c0.3-10.5,6-17.6,15.4-21.1
	c5.9-2.2,12.4-3.4,18.7-3.4c163.9-0.3,327.8-0.4,491.6-0.3c81.8,0,163.7,0.5,245.5,0.8C676.1-933.6,682.4-932.9,689.7-932.5z"/>
</svg>
